<svg width="170" height="30" xmlns="http://www.w3.org/2000/svg">

 <g>
  <title>Layer 1</title>
  <path id="svg_1" d="m166.225,28.691l-1.16,-13.293l-4.467,13.293l-2.369,0l-4.467,-13.293l-1.172,13.293l-3.662,0l1.477,-17.639l5.224,0l3.76,11.072l3.809,-11.072l5.224,0l1.453,17.639l-3.65,0zm-23.584,0l-4.59,-7.763l-1.062,0l0,7.763l-3.662,0l0,-17.639l6.397,0c0.968,0 1.822,0.137 2.563,0.409c0.741,0.273 1.333,0.651 1.776,1.135c0.444,0.485 0.777,1.04 1.001,1.667c0.224,0.626 0.336,1.314 0.336,2.063c0,1.18 -0.322,2.146 -0.964,2.899c-0.643,0.753 -1.567,1.259 -2.771,1.52l5.31,7.946l-4.334,0zm-0.745,-12.487c0,-0.66 -0.223,-1.176 -0.671,-1.551c-0.448,-0.374 -1.139,-0.561 -2.075,-0.561l-2.161,0l0,4.211l2.161,0c1.831,0 2.746,-0.7 2.746,-2.099zm-16.326,11.627c-1.364,0.736 -2.904,1.105 -4.621,1.105c-1.725,0 -3.269,-0.369 -4.632,-1.105c-1.364,-0.737 -2.436,-1.797 -3.217,-3.18c-0.781,-1.384 -1.172,-2.979 -1.172,-4.785c0,-1.815 0.391,-3.412 1.172,-4.792c0.781,-1.379 1.853,-2.435 3.217,-3.167c1.363,-0.733 2.907,-1.099 4.632,-1.099c1.725,0 3.268,0.366 4.627,1.099c1.359,0.732 2.429,1.788 3.21,3.167c0.781,1.38 1.172,2.977 1.172,4.792c0,1.806 -0.391,3.401 -1.172,4.785c-0.781,1.383 -1.853,2.443 -3.216,3.18zm-0.763,-12.116c-1.01,-1.025 -2.295,-1.538 -3.858,-1.538c-1.562,0 -2.848,0.513 -3.857,1.538c-1.009,1.026 -1.514,2.409 -1.514,4.151c0,1.75 0.505,3.139 1.514,4.168c1.009,1.03 2.295,1.545 3.857,1.545c1.563,0 2.848,-0.515 3.858,-1.545c1.009,-1.029 1.513,-2.418 1.513,-4.168c0,-1.742 -0.504,-3.125 -1.513,-4.151zm-57.935,12.976l-5.481,-7.495l-1.294,0l0,7.495l-3.662,0l0,-17.639l3.662,0l0,6.934l1.245,0l5.53,-6.934l4.468,0l-6.836,8.435l7.043,9.204l-4.675,0zm-18.195,-0.86c-1.363,0.736 -2.903,1.105 -4.62,1.105c-1.725,0 -3.269,-0.369 -4.632,-1.105c-1.364,-0.737 -2.436,-1.797 -3.217,-3.18c-0.781,-1.384 -1.172,-2.979 -1.172,-4.785c0,-1.815 0.391,-3.412 1.172,-4.792c0.781,-1.379 1.853,-2.435 3.217,-3.167c1.363,-0.733 2.907,-1.099 4.632,-1.099c1.725,0 3.267,0.366 4.627,1.099c1.359,0.732 2.429,1.788 3.21,3.167c0.781,1.38 1.172,2.977 1.172,4.792c0,1.806 -0.391,3.401 -1.172,4.785c-0.781,1.383 -1.854,2.443 -3.217,3.18zm-0.762,-12.116c-1.01,-1.025 -2.295,-1.538 -3.858,-1.538c-1.562,0 -2.848,0.513 -3.857,1.538c-1.009,1.026 -1.514,2.409 -1.514,4.151c0,1.75 0.505,3.139 1.514,4.168c1.009,1.03 2.295,1.545 3.857,1.545c1.563,0 2.848,-0.515 3.858,-1.545c1.009,-1.029 1.513,-2.418 1.513,-4.168c0,-1.742 -0.504,-3.125 -1.513,-4.151zm-19.428,12.116c-1.363,0.736 -2.903,1.105 -4.62,1.105c-1.726,0 -3.27,-0.369 -4.633,-1.105c-1.363,-0.737 -2.435,-1.797 -3.216,-3.18c-0.782,-1.384 -1.172,-2.979 -1.172,-4.785c0,-1.815 0.39,-3.412 1.172,-4.792c0.781,-1.379 1.853,-2.435 3.216,-3.167c1.363,-0.733 2.907,-1.099 4.633,-1.099c1.725,0 3.267,0.366 4.626,1.099c1.359,0.732 2.429,1.788 3.211,3.167c0.781,1.38 1.171,2.977 1.171,4.792c0,1.806 -0.39,3.401 -1.171,4.785c-0.782,1.383 -1.854,2.443 -3.217,3.18zm-0.763,-12.116c-1.009,-1.025 -2.295,-1.538 -3.857,-1.538c-1.563,0 -2.849,0.513 -3.858,1.538c-1.009,1.026 -1.513,2.409 -1.513,4.151c0,1.75 0.504,3.139 1.513,4.168c1.009,1.03 2.295,1.545 3.858,1.545c1.562,0 2.848,-0.515 3.857,-1.545c1.009,-1.029 1.514,-2.418 1.514,-4.168c0,-1.742 -0.505,-3.125 -1.514,-4.151zm-16.052,11.652c-0.936,0.883 -2.311,1.324 -4.126,1.324l-7.263,0l0,-17.639l5.713,0c1.879,0 3.318,0.426 4.315,1.276c0.997,0.85 1.495,2.037 1.495,3.558c0,0.79 -0.173,1.488 -0.519,2.094c-0.346,0.606 -0.856,1.072 -1.532,1.397c2.214,0.611 3.321,2.068 3.321,4.371c0,1.53 -0.468,2.736 -1.404,3.619zm-3.845,-12.72c-0.407,-0.37 -1.006,-0.555 -1.795,-0.555l-2.221,0l0,4.15l2.38,0c0.749,0 1.31,-0.195 1.684,-0.586c0.375,-0.39 0.562,-0.903 0.562,-1.538c0,-0.61 -0.204,-1.1 -0.61,-1.471zm1.049,7.062c-0.431,-0.431 -1.127,-0.647 -2.087,-0.647l-2.978,0l0,4.492l3.051,0c0.92,0 1.593,-0.207 2.021,-0.622c0.427,-0.415 0.64,-0.944 0.64,-1.587c0,-0.659 -0.215,-1.205 -0.647,-1.636z" fill="#19110B" fill-rule="evenodd"/>
  <path id="svg_2" fill="#739dd8" d="m105.996,23.499c-0.001,3.253 -2.046,5.766 -5.248,6.451c-0.035,0.008 -0.067,0.033 -0.101,0.05c-0.059,0 -0.118,0 -0.176,0c-0.004,-1.415 -0.011,-2.829 -0.005,-4.244c0.001,-0.081 0.084,-0.191 0.16,-0.238c0.726,-0.45 1.088,-1.093 1.085,-1.947c-0.004,-1.551 -0.001,-3.102 -0.001,-4.679c1.423,0 2.836,0 4.286,0c0,0.097 0,0.201 0,0.304c0,1.434 0.001,2.869 0,4.303zm-4.281,-6.41c0,-1.099 -0.032,-2.172 0.009,-3.242c0.043,-1.168 1.037,-2.041 2.207,-2.009c1.129,0.031 2.047,0.956 2.062,2.102c0.012,1.014 0.002,2.029 0.002,3.043c0,0.028 -0.008,0.057 -0.015,0.106c-1.411,0 -2.823,0 -4.265,0zm-5.294,12.145c-2.099,-1.251 -3.222,-3.098 -3.266,-5.531c-0.047,-2.565 -0.01,-5.132 -0.009,-7.698c0,-0.048 0.007,-0.095 0.013,-0.164c1.413,0 2.817,0 4.267,0c0,0.107 0,0.219 0,0.331c0,2.43 0.004,4.859 -0.003,7.289c-0.002,0.903 0.334,1.605 1.125,2.079c0.081,0.049 0.14,0.2 0.141,0.304c0.01,1.278 0.006,2.557 0.007,3.835c0,0.107 0.007,0.214 0.011,0.321c-0.059,0 -0.117,0 -0.176,0c-0.732,-0.177 -1.456,-0.376 -2.11,-0.766zm-3.276,-15.191c0,-0.108 0,-0.22 0,-0.332c0,-2.393 -0.008,-4.785 0.004,-7.177c0.005,-0.909 -0.331,-1.606 -1.126,-2.074c-0.062,-0.036 -0.129,-0.128 -0.129,-0.195c-0.008,-1.415 -0.006,-2.829 -0.006,-4.265c1.535,0.232 2.815,0.889 3.843,2.009c1.102,1.2 1.682,2.621 1.69,4.252c0.012,2.53 0.005,5.058 0.006,7.588c0,0.057 -0.006,0.115 -0.011,0.194c-1.411,0 -2.817,0 -4.271,0zm-3.557,-9.261c-0.554,0.346 -0.722,0.986 -0.72,1.649c0.007,1.63 0.002,3.261 0.001,4.891c0,0.821 0,1.641 -0.002,2.461c0,0.086 -0.01,0.171 -0.016,0.268c-1.417,0 -2.816,0 -4.264,0c0,-0.093 0,-0.185 0,-0.277c0.001,-2.48 -0.008,-4.96 0.003,-7.44c0.015,-3.176 2.263,-5.791 5.41,-6.316c0.028,-0.005 0.058,-0.001 0.125,-0.001c0,0.622 0,1.226 0,1.831c0,0.557 -0.016,1.114 0.005,1.67c0.019,0.514 -0.004,0.929 -0.542,1.264zm-5.003,11.055c1.43,0 2.835,0 4.283,0c0,0.114 0,0.228 0,0.342c0,2.429 -0.019,4.86 0.005,7.289c0.035,3.539 -2.515,6.025 -5.284,6.487c-0.037,0.006 -0.071,0.03 -0.107,0.045c-0.058,0 -0.117,0 -0.176,0c0.004,-1.366 0.013,-2.732 0.007,-4.098c-0.002,-0.211 0.063,-0.322 0.246,-0.435c0.709,-0.436 1.028,-1.096 1.028,-1.918c0,-2.45 -0.001,-4.899 -0.002,-7.348c0,-0.116 0,-0.231 0,-0.364zm-3.219,14.163c-0.491,-0.156 -1.006,-0.26 -1.469,-0.476c-2.462,-1.144 -3.777,-3.084 -3.87,-5.792c-0.053,-1.54 -0.01,-3.083 -0.011,-4.625c0,-0.067 0,-0.134 0,-0.221c1.431,0 2.843,0 4.287,0c0,0.114 0,0.218 0,0.323c0,1.454 0.005,2.908 -0.001,4.362c-0.004,0.856 0.364,1.494 1.085,1.947c0.076,0.048 0.16,0.157 0.16,0.238c0.006,1.415 -0.001,2.829 -0.005,4.244c-0.058,0 -0.117,0 -0.176,0zm-5.349,-12.903c0,-0.557 0,-1.1 0,-1.644c0,-0.488 -0.005,-0.975 0,-1.463c0.013,-1.159 0.894,-2.098 2.015,-2.152c1.171,-0.057 2.185,0.781 2.25,1.959c0.059,1.088 0.012,2.181 0.012,3.3c-1.437,0 -2.842,0 -4.277,0z" fill-rule="evenodd" class="fill-primary"/>
 </g>
</svg>